<svg xmlns="http://www.w3.org/2000/svg" width="25.073" height="33.191" viewBox="0 0 25.073 33.191">
  <g id="file-data-svgrepo-com" transform="translate(-60.83)">
    <path id="Path_89321" data-name="Path 89321" d="M82.608,0H64.125a3.3,3.3,0,0,0-3.3,3.3V29.9a3.3,3.3,0,0,0,3.3,3.3H82.608a3.3,3.3,0,0,0,3.3-3.3V3.3A3.3,3.3,0,0,0,82.608,0Zm1.008,29.9A1.01,1.01,0,0,1,82.608,30.9H64.125A1.009,1.009,0,0,1,63.117,29.9V3.3a1.009,1.009,0,0,1,1.008-1.008H82.608A1.01,1.01,0,0,1,83.616,3.3V29.9Z" transform="translate(0 0)" fill="#fe594e"/>
    <path id="Path_89322" data-name="Path 89322" d="M159.881,114.144h7.434a1.144,1.144,0,0,0,0-2.287h-7.434a1.144,1.144,0,0,0,0,2.287Z" transform="translate(-91.374 -104.393)" fill="#fe594e"/>
    <path id="Path_89323" data-name="Path 89323" d="M169.6,197.548h-9.72a1.144,1.144,0,1,0,0,2.287h9.72a1.144,1.144,0,1,0,0-2.287Z" transform="translate(-91.374 -184.366)" fill="#fe594e"/>
    <path id="Path_89324" data-name="Path 89324" d="M169.6,283.245h-9.72a1.144,1.144,0,1,0,0,2.287h9.72a1.144,1.144,0,1,0,0-2.287Z" transform="translate(-91.374 -264.345)" fill="#fe594e"/>
    <path id="Path_89325" data-name="Path 89325" d="M169.6,368.933h-9.72a1.143,1.143,0,1,0,0,2.287h9.72a1.143,1.143,0,1,0,0-2.287Z" transform="translate(-91.374 -344.315)" fill="#fe594e"/>
  </g>
</svg>
