<svg xmlns="http://www.w3.org/2000/svg" width="33.749" height="32.261" viewBox="0 0 33.749 32.261">
  <path id="support-svgrepo-com" d="M32.748,21.608A11.157,11.157,0,0,0,22.688,10.5a1.7,1.7,0,0,0-1.63-1.225H11.691a1.7,1.7,0,0,0-1.63,1.225A11.158,11.158,0,0,0,0,21.608v8.913a3.437,3.437,0,0,0,3.433,3.433H6.1a1.444,1.444,0,0,0,1.442-1.442V23.04A1.444,1.444,0,0,0,6.1,21.6H3.433a3.417,3.417,0,0,0-2.23.826v-.816A9.955,9.955,0,0,1,10.157,11.7a1.7,1.7,0,0,0,1.534.973h9.367a1.7,1.7,0,0,0,1.534-.973,9.954,9.954,0,0,1,8.954,9.909v.816a3.417,3.417,0,0,0-2.229-.826H26.644A1.444,1.444,0,0,0,25.2,23.04v9.471a1.444,1.444,0,0,0,1.442,1.442h2.672a3.417,3.417,0,0,0,2.23-.826v.438a4.126,4.126,0,0,1-4.122,4.122H20.135a2.251,2.251,0,0,0-2.165-1.646H15.777a2.247,2.247,0,0,0,0,4.494h2.194a2.251,2.251,0,0,0,2.165-1.646h7.289a5.331,5.331,0,0,0,5.325-5.325V21.608ZM6.344,23.04v9.471a.239.239,0,0,1-.239.239H5.866V22.8H6.1A.239.239,0,0,1,6.344,23.04ZM3.433,22.8h1.23v9.95H3.433a2.232,2.232,0,0,1-2.23-2.23V25.031A2.232,2.232,0,0,1,3.433,22.8ZM21.058,11.469H11.691a.5.5,0,0,1,0-.991h9.367a.5.5,0,1,1,0,.991ZM26.4,32.512V23.04a.239.239,0,0,1,.239-.239h.239v9.95h-.239A.24.24,0,0,1,26.4,32.512Zm-8.434,6.821H15.777a1.044,1.044,0,1,1,0-2.088h2.194a1.044,1.044,0,1,1,0,2.088Zm11.346-6.582h-1.23V22.8h1.23a2.232,2.232,0,0,1,2.23,2.23v5.491A2.232,2.232,0,0,1,29.316,32.751Z" transform="translate(0.5 -8.775)" fill="#fe594e" stroke="#fe594e" stroke-width="1"/>
</svg>
