<svg xmlns="http://www.w3.org/2000/svg" width="29.667" height="29.668" viewBox="0 0 29.667 29.668">
  <g id="_39d0ca31697da0067cc6fc38e42d849d" data-name="39d0ca31697da0067cc6fc38e42d849d" transform="translate(-9.972 -9.954)">
    <path id="Path_89318" data-name="Path 89318" d="M39.462,13.355a29.14,29.14,0,0,0-3.521-3.369c-1.211-.251-1.792,1.057-2.625,1.668,1.4,1.632,3.042,3.073,4.553,4.617C38.553,15.456,40.176,14.62,39.462,13.355Zm-.751,6.163c-.96.963-1.953,1.9-2.879,2.9-.024,3.86.009,7.719-.012,11.582a2.862,2.862,0,0,1-2.688,2.734q-8.782.036-17.57,0a2.926,2.926,0,0,1-2.721-3.109q0-8.382,0-16.756a2.928,2.928,0,0,1,2.712-3.091c3.878-.051,7.759,0,11.634-.027,1.005-.908,1.934-1.9,2.9-2.861-5.164,0-10.323-.027-15.487.015A4.818,4.818,0,0,0,9.982,15.48c-.006,6.515-.024,13.026.012,19.541a4.818,4.818,0,0,0,4.311,4.6H34.594a4.907,4.907,0,0,0,4.093-4.568C38.753,29.878,38.7,24.695,38.711,19.518Zm-1.547-2.534q-2.28-2.293-4.589-4.562c-3.366,3.342-6.739,6.675-10.087,10.035q2.275,2.289,4.58,4.55Q32.122,22,37.164,16.985ZM20,29.469c2.062-.56,3.16-.914,5.222-1.468.551-.176.917-.282,1.2-.394-1.459-1.39-3.136-3.1-4.592-4.5C21.216,25.225,20.611,27.347,20,29.469Z" fill="#fe594e"/>
  </g>
</svg>
