<svg xmlns="http://www.w3.org/2000/svg" width="36.721" height="35.884" viewBox="0 0 36.721 35.884">
  <path id="hair-salon" d="M9.178,18.945c-2.6-.942-4.054-2.422-4.432-4.4l16.436,4.419a2.931,2.931,0,0,1,1.633.683,4.035,4.035,0,0,1,.711,1.016,1.629,1.629,0,0,0,1.032.7l.524.024c.47.023.958.124,1.29-.3a1.367,1.367,0,0,0,.06-1.243,3.51,3.51,0,0,1,.227-1.439,4.08,4.08,0,0,1,.807-1.274A5.051,5.051,0,0,1,32.5,16.076a5.086,5.086,0,0,1,4.177,3.9,3.35,3.35,0,0,1-.921,2.984,5.064,5.064,0,0,1-4.188,1.387,16.641,16.641,0,0,1-3.146-.682l-4-.488.1-.175-15.34-4.06Zm.729,8.491a.422.422,0,0,1-.6.6l-5.1-5.1-.714.714,5.185,5.185c.177.29-.159.556-.377.5C5,28.028,1.184,25.283.21,22.172c-.376-1.2-.276-1.106.531-1.914L3.879,17.12a7,7,0,0,0,1.006,1.262,9.537,9.537,0,0,0,3.222,2.039l4.407,4.407a.423.423,0,0,1-.6.6l-5.1-5.094-.7.7,5.094,5.1a.423.423,0,0,1-.6.6l-5.1-5.094-.706.706,5.1,5.094ZM7.532,13.467,14.3,6.7l1.3,4.85-.369.369.641.641.44,1.637-1.68-1.68-.705.7,2.7,2.7-1.637-.44-1.657-1.657-.7.7.434.435L7.532,13.467ZM17.956,3.043l2.3-2.3c.808-.808.714-.907,1.914-.531,3.111.974,5.856,4.794,7.165,8.1.055.217-.211.554-.5.377L23.651,3.5l-.6.6,5.1,5.094a.422.422,0,0,1-.6.6l-5.1-5.094-.707.707,5.1,5.094a.422.422,0,0,1-.6.6L21.156,6l-.327.327a8.809,8.809,0,0,0-1.611-2.275,6.921,6.921,0,0,0-1.262-1.006Zm3.452,4.617L25.545,11.8a.423.423,0,0,1-.6.6L21.861,9.309l-.374-1.416a1.749,1.749,0,0,0-.072-.214Zm.961,3.57L24.241,13.1a.422.422,0,0,1-.6.6L22.8,12.85l-.429-1.621ZM15.211,22.365a.423.423,0,0,1-.1.448.418.418,0,0,1-.59.006l-.866-.866,1.554.411Zm-3.476-.92,2.081,2.081a.422.422,0,0,1-.6.6l-3.106-3.106,1.622.429Zm8.047-13.1c-.943-2.6-2.423-4.053-4.4-4.432l3.653,13.583,3.421.955L19.782,8.341Zm2.2,14.832a1.7,1.7,0,0,1,.223.548l.025.524c.022.47.123.957-.3,1.29a1.365,1.365,0,0,1-1.243.06,3.507,3.507,0,0,0-1.439.228,4.059,4.059,0,0,0-1.274.807,5.052,5.052,0,0,0-1.054,5.036,5.088,5.088,0,0,0,3.9,4.177A3.348,3.348,0,0,0,23.8,34.92a5.065,5.065,0,0,0,1.388-4.188,16.7,16.7,0,0,0-.683-3.147L24.031,23.7l-.153-.039-.037.021-.009-.032-1.854-.477Zm-1.076,4.1a1.978,1.978,0,0,0-2.216,1.3,3.9,3.9,0,0,0-.193,2.543,4.851,4.851,0,0,0,1.5,2.519c1.48,1.23,2.943.28,3.4-1.365a3.873,3.873,0,0,0-.072-2.291,5.452,5.452,0,0,0-.817-1.6,2.771,2.771,0,0,0-1.6-1.1Zm.073-7.205a.811.811,0,1,1,0,1.148A.811.811,0,0,1,20.976,20.069Zm7.135,0a1.979,1.979,0,0,1,1.3-2.217,3.9,3.9,0,0,1,2.543-.193,4.856,4.856,0,0,1,2.519,1.5c1.231,1.48.28,2.943-1.365,3.4a3.879,3.879,0,0,1-2.291-.072,5.477,5.477,0,0,1-1.6-.818A2.763,2.763,0,0,1,28.111,20.066Z" transform="translate(0 0)" fill="#fe594e" fill-rule="evenodd"/>
</svg>
