<svg xmlns="http://www.w3.org/2000/svg" width="34.762" height="36.689" viewBox="0 0 34.762 36.689">
  <path id="privacy-policy" d="M26.3,18.15c3.144,1.991,5.971,2.935,8.426,2.714.424,8.614-2.756,13.7-8.393,15.824C20.885,34.7,17.673,29.822,17.9,20.733A12.059,12.059,0,0,0,26.3,18.15ZM18.78,3.622l6.186,5.792H18.78ZM6.351,16.72h12.5c.818,0,.926,1.12.394,1.493-.248.045-.493.084-.74.116H6.36c-.961,0-.961-1.591,0-1.606Zm0,5h8.715c.024.549.063,1.084.11,1.606H6.36c-.967,0-.955-1.606,0-1.606Zm0,5h9.318c.113.552.242,1.09.385,1.606H6.36c-.967,0-.955-1.606,0-1.606Zm0-14.994h7.193c.967,0,.955,1.6,0,1.6H6.36c-.967,0-.958-1.6,0-1.6Zm0-4.649h3.956c.952,0,.964,1.6,0,1.6H6.36c-.967,0-.955-1.6,0-1.6Zm22.059,3.174a1.027,1.027,0,0,0-.749-.991L18.547.379A1.024,1.024,0,0,0,17.75,0H1.851A1.851,1.851,0,0,0,0,1.851V33.545A1.854,1.854,0,0,0,1.851,35.4H19.706a15.5,15.5,0,0,1-1.517-2.069H2.066V2.057H16.72V10.45a1.036,1.036,0,0,0,1.036,1.039H26.34v3.538q1.051.663,2.069,1.209ZM26.364,21.1a9.547,9.547,0,0,0,5.748,1.851c.3,5.876-1.881,9.345-5.724,10.79a.7.7,0,0,1-.072-.027V21.136l.048-.039ZM26.3,19.213c2.783,1.765,5.3,2.6,7.464,2.4.376,7.626-2.439,12.128-7.431,14.006C21.5,33.864,18.658,29.559,18.87,21.5A10.671,10.671,0,0,0,26.3,19.21Z" fill="#fe594e" fill-rule="evenodd"/>
</svg>
