<svg id="XMLID_2_" xmlns="http://www.w3.org/2000/svg" width="31.711" height="31.705" viewBox="0 0 31.711 31.705">
  <path id="XMLID_13_" d="M22.464,0a2.5,2.5,0,0,0-2.645,2.323V8.665a2.5,2.5,0,0,0,2.645,2.323,2.5,2.5,0,0,0,2.645-2.323V2.323A2.5,2.5,0,0,0,22.464,0ZM0,4.385V6.6H18.5V4.385Zm26.428,0V6.6h5.283V4.385ZM9.247,10.572A2.5,2.5,0,0,0,6.6,12.895v6.342A2.5,2.5,0,0,0,9.247,21.56a2.5,2.5,0,0,0,2.645-2.323V12.895A2.5,2.5,0,0,0,9.247,10.572ZM0,14.957v2.217H5.283V14.957H0Zm13.211,0v2.217h18.5V14.957h-18.5Zm9.253,5.76a2.5,2.5,0,0,0-2.645,2.323v6.342A2.5,2.5,0,0,0,22.464,31.7a2.5,2.5,0,0,0,2.645-2.323V23.046A2.468,2.468,0,0,0,22.464,20.717ZM0,25.1V27.32H18.5V25.1Zm26.428,0V27.32h5.283V25.1Z" fill="#fe594e"/>
</svg>
