<svg xmlns="http://www.w3.org/2000/svg" width="27.852" height="35.588" viewBox="0 0 27.852 35.588">
  <path id="terms-and-conditions" d="M18.17,31.947l6.221-6.539H18.17ZM6.537,13.3V7.53h-1.9V5.752h5.775V7.53h-1.9v5.792Zm14.072.061a4,4,0,0,1-1.158-.153,1.888,1.888,0,0,1-.869-.559,2.746,2.746,0,0,1-.559-1.158,8.416,8.416,0,0,1-.191-1.984,7.588,7.588,0,0,1,.2-1.932,2.812,2.812,0,0,1,.579-1.158,1.943,1.943,0,0,1,.869-.579A3.765,3.765,0,0,1,20.6,5.685a7.912,7.912,0,0,1,1.112.067,6.661,6.661,0,0,1,.823.156,3.69,3.69,0,0,1,.544.182V7.626c-.127-.026-.29-.055-.5-.081s-.434-.049-.7-.067-.544-.026-.849-.026a2.106,2.106,0,0,0-.579.072.681.681,0,0,0-.382.29,1.622,1.622,0,0,0-.209.626A7.275,7.275,0,0,0,19.8,9.531a8.182,8.182,0,0,0,.052,1.017,1.761,1.761,0,0,0,.182.637.738.738,0,0,0,.382.324,1.819,1.819,0,0,0,.646.1c.513,0,.933,0,1.254-.026s.579-.038.767-.064v1.518a3.577,3.577,0,0,1-.579.171,6.977,6.977,0,0,1-.8.113c-.29.026-.666.041-1.086.041Zm-7.272.055a3.061,3.061,0,0,1-1.367-.29,2.111,2.111,0,0,1-.869-.753,1.871,1.871,0,0,1-.307-1.043,1.616,1.616,0,0,1,.159-.736,2,2,0,0,1,.443-.579,5,5,0,0,1,.666-.527l1.677-1.04a.935.935,0,0,0,.342-.33.672.672,0,0,0,.078-.3.455.455,0,0,0-.127-.313.524.524,0,0,0-.405-.133.652.652,0,0,0-.29.061.463.463,0,0,0-.188.177.492.492,0,0,0-.07.266.869.869,0,0,0,.125.434C13.87,9.54,16.549,12.164,17.6,13.3H15.6l-3-3.168c-.148-.156-.31-.348-.489-.579a3.658,3.658,0,0,1-.458-.77,2.227,2.227,0,0,1-.194-.935,2.027,2.027,0,0,1,.269-1.028,2.056,2.056,0,0,1,.759-.741,2.294,2.294,0,0,1,1.138-.29,2.123,2.123,0,0,1,1.069.258,1.848,1.848,0,0,1,.7.681,1.868,1.868,0,0,1,.249.944,1.9,1.9,0,0,1-.255.962,2.514,2.514,0,0,1-.727.785,12.647,12.647,0,0,0-1.836,1.364.623.623,0,0,0-.127.411.637.637,0,0,0,.1.359.614.614,0,0,0,.29.226,1.034,1.034,0,0,0,.42.078,1.631,1.631,0,0,0,.736-.18,2.239,2.239,0,0,0,.678-.5A2.473,2.473,0,0,0,15.6,9.441h1.573a5.581,5.581,0,0,1-.133,1.237,3.687,3.687,0,0,1-.429,1.092,2.775,2.775,0,0,1-.779.834l-.29.142-.29.145a3.006,3.006,0,0,1-.927.4,4.026,4.026,0,0,1-.95.119ZM5.482,26.065h5.569v1.6H5.482Zm0-4.055h7.9v1.6h-7.9Zm0-4.055H22.367v1.6H5.482V17.939Zm22.37,6.618a1.037,1.037,0,0,1-.756,1l-9.16,9.633a1.028,1.028,0,0,1-.8.382H1.862A1.859,1.859,0,0,1,0,33.726V1.862A1.859,1.859,0,0,1,1.862,0H25.99a1.865,1.865,0,0,1,1.862,1.862Zm-2.077-1.245V2.079H2.079V33.517H16.091V24.374a1.046,1.046,0,0,1,1.046-1.046Z" fill="#fe594e"/>
</svg>
