<svg xmlns="http://www.w3.org/2000/svg" width="33.721" height="31.075" viewBox="0 0 33.721 31.075">
  <g id="_5fa56c89cbeb4563e37f61c2c64a5a1f" data-name="5fa56c89cbeb4563e37f61c2c64a5a1f" transform="translate(-10 -48.4)">
    <g id="Group_55980" data-name="Group 55980" transform="translate(10 48.4)">
      <g id="Layer_5_33_" transform="translate(0 0)">
        <g id="Group_55979" data-name="Group 55979">
          <path id="Path_89319" data-name="Path 89319" d="M41.075,63.828c0-.22.089-.736.912-.736h1.407c.609,0,.179-.509.179-.509l-3.836-6.049a.226.226,0,0,0-.4.034l-3.785,5.99s-.475.533.175.533h1.421c.423,0,.908.1.908.9a12.515,12.515,0,1,1-7.239-11.416,1.5,1.5,0,1,0,1.27-2.728,15.538,15.538,0,1,0-6.554,29.627A15.57,15.57,0,0,0,41.075,64Z" transform="translate(-10 -48.4)" fill="#fe594e"/>
          <path id="Path_89320" data-name="Path 89320" d="M335.9,234.834c-2-.8-2.577-1.287-2.577-2.164,0-.7.53-1.521,2.027-1.521a5.62,5.62,0,0,1,2.346.526.719.719,0,0,0,.344.086.7.7,0,0,0,.654-.447l.365-.929a.576.576,0,0,0-.31-.74,14.274,14.274,0,0,0-2.422-.633.125.125,0,0,1-.114-.127l-.007-1.349a.746.746,0,0,0-.757-.736h-.65a.745.745,0,0,0-.753.736v1.418c0,.11-.117.155-.162.165a3.912,3.912,0,0,0-3.265,3.809c0,2.316,1.913,3.361,3.981,4.146,1.651.65,2.326,1.307,2.326,2.271,0,1.049-.953,1.782-2.322,1.782a8.2,8.2,0,0,1-2.763-.747.737.737,0,0,0-.32-.072.7.7,0,0,0-.667.464l-.348.939a.611.611,0,0,0,.31.764,12.346,12.346,0,0,0,2.931.815c.024,0,.138.045.138.148v1.411a.748.748,0,0,0,.757.736h.674a.748.748,0,0,0,.757-.736v-1.486a.138.138,0,0,1,.124-.155,4.1,4.1,0,0,0,3.461-4.015C339.653,237.18,338.531,235.873,335.9,234.834Z" transform="translate(-319.439 -220.662)" fill="#fe594e"/>
        </g>
      </g>
    </g>
  </g>
</svg>
